<?xml version="1.0" encoding="UTF-8" standalone="no"?>
<!-- Created with Inkscape (http://www.inkscape.org/) -->

<svg
   xmlns:dc="http://purl.org/dc/elements/1.1/"
   xmlns:cc="http://creativecommons.org/ns#"
   xmlns:rdf="http://www.w3.org/1999/02/22-rdf-syntax-ns#"
   xmlns:svg="http://www.w3.org/2000/svg"
   xmlns="http://www.w3.org/2000/svg"
   xmlns:xlink="http://www.w3.org/1999/xlink"
   xmlns:sodipodi="http://sodipodi.sourceforge.net/DTD/sodipodi-0.dtd"
   xmlns:inkscape="http://www.inkscape.org/namespaces/inkscape"
   width="32"
   height="32"
   id="svg2"
   version="1.1"
   inkscape:version="0.48.2 r9819"
   sodipodi:docname="add.svg">
  <defs
     id="defs4">
    <linearGradient
       id="linearGradient4267">
      <stop
         style="stop-color:#f6f6f6;stop-opacity:1;"
         offset="0"
         id="stop4269" />
      <stop
         style="stop-color:#bfbfbf;stop-opacity:1"
         offset="1"
         id="stop4271" />
    </linearGradient>
    <linearGradient
       inkscape:collect="always"
       xlink:href="#linearGradient4267"
       id="linearGradient4273"
       x1="177"
       y1="247.36218"
       x2="177"
       y2="269.36218"
       gradientUnits="userSpaceOnUse"
       gradientTransform="matrix(0.74710308,0,0,1.0061087,41.015625,-97.578253)" />
    <filter
       inkscape:collect="always"
       id="filter3779"
       x="-0.12"
       width="1.24"
       y="-0.12"
       height="1.24">
      <feGaussianBlur
         inkscape:collect="always"
         stdDeviation="0.6"
         id="feGaussianBlur3781" />
    </filter>
  </defs>
  <sodipodi:namedview
     id="base"
     pagecolor="#ffffff"
     bordercolor="#666666"
     borderopacity="1.0"
     inkscape:pageopacity="0.0"
     inkscape:pageshadow="2"
     inkscape:zoom="1"
     inkscape:cx="108.10036"
     inkscape:cy="129.91134"
     inkscape:document-units="px"
     inkscape:current-layer="layer1"
     showgrid="false"
     inkscape:snap-bbox="true"
     showguides="true"
     inkscape:guide-bbox="true"
     inkscape:snap-grids="true"
     fit-margin-top="0"
     fit-margin-left="0"
     fit-margin-right="0"
     fit-margin-bottom="0"
     inkscape:window-width="1280"
     inkscape:window-height="693"
     inkscape:window-x="0"
     inkscape:window-y="0"
     inkscape:window-maximized="1">
    <inkscape:grid
       type="xygrid"
       id="grid3135"
       empspacing="8"
       visible="true"
       enabled="true"
       snapvisiblegridlinesonly="true" />
  </sodipodi:namedview>
  <metadata
     id="metadata7">
    <rdf:RDF>
      <cc:Work
         rdf:about="">
        <dc:format>image/svg+xml</dc:format>
        <dc:type
           rdf:resource="http://purl.org/dc/dcmitype/StillImage" />
        <dc:title />
      </cc:Work>
    </rdf:RDF>
  </metadata>
  <g
     inkscape:label="Layer 1"
     inkscape:groupmode="layer"
     id="layer1"
     transform="translate(-158,-146.375)">
    <rect
       ry="2.8857939"
       y="152.78094"
       x="159.41876"
       height="21.162485"
       width="29.162491"
       id="rect4275"
       style="fill:none;stroke:#c2c2c2;stroke-width:1;stroke-linecap:round;stroke-linejoin:round;stroke-miterlimit:4;stroke-opacity:1;stroke-dasharray:none" />
    <rect
       style="fill:url(#linearGradient4273);fill-opacity:1;stroke:#777777;stroke-width:1;stroke-linecap:round;stroke-linejoin:round;stroke-miterlimit:4;stroke-opacity:1;stroke-dasharray:none"
       id="rect3137"
       width="29.162491"
       height="21.162561"
       x="159.41876"
       y="151.78091"
       ry="2.8858042" />
    <path
       style="font-size:medium;font-style:normal;font-variant:normal;font-weight:normal;font-stretch:normal;text-indent:0;text-align:start;text-decoration:none;line-height:normal;letter-spacing:normal;word-spacing:normal;text-transform:none;direction:ltr;block-progression:tb;writing-mode:lr-tb;text-anchor:start;baseline-shift:baseline;color:#000000;fill:#ffffff;fill-opacity:1;fill-rule:nonzero;stroke:#ffffff;stroke-width:0;marker:none;visibility:visible;display:inline;overflow:visible;enable-background:accumulate;font-family:Sans;-inkscape-font-specification:Sans;stroke-miterlimit:4;stroke-dasharray:none"
       d="m 172.5,156.375 0,0.5 0,4.5 -4.5,0 -0.5,0 0,0.5 0,2 0,0.5 0.5,0 4.5,0 0,4.5 0,0.5 0.5,0 2,0 0.5,0 0,-0.5 0,-4.5 4.5,0 0.5,0 0,-0.5 0,-2 0,-0.5 -0.5,0 -4.5,0 0,-4.5 0,-0.5 -0.5,0 -2,0 -0.5,0 z m 1,1 1,0 0,4.5 0,0.5 0.5,0 4.5,0 0,1 -4.5,0 -0.5,0 0,0.5 0,4.5 -1,0 0,-4.5 0,-0.5 -0.5,0 -4.5,0 0,-1 4.5,0 0.5,0 0,-0.5 0,-4.5 z"
       id="path3759"
       inkscape:connector-curvature="0" />
    <path
       style="fill:#000000;stroke:#000000;stroke-width:1px;stroke-linecap:butt;stroke-linejoin:miter;stroke-opacity:1;fill-opacity:1"
       d="m 15,10 2,0 0,5 5,0 0,2 -5,0 0,5 -2,0 0,-5 -5,0 0,-2 5,0 z"
       id="path2989"
       inkscape:connector-curvature="0"
       transform="translate(158,146.375)"
       sodipodi:nodetypes="ccccccccccccc" />
    <path
       sodipodi:nodetypes="ccccccccccccc"
       transform="translate(158,146.375)"
       inkscape:connector-curvature="0"
       id="path3765"
       d="m 15,10 2,0 0,5 5,0 0,2 -5,0 0,5 -2,0 0,-5 -5,0 0,-2 5,0 z"
       style="fill:#ffffff;stroke:#ffffff;stroke-width:0;stroke-linecap:butt;stroke-linejoin:miter;stroke-opacity:1;fill-opacity:1;filter:url(#filter3779);stroke-miterlimit:4;stroke-dasharray:none;opacity:0.15" />
  </g>
</svg>
